<?xml version="1.0" standalone="no"?><!DOCTYPE svg PUBLIC "-//W3C//DTD SVG 1.1//EN" "http://www.w3.org/Graphics/SVG/1.1/DTD/svg11.dtd"><svg t="1580709986647" class="icon" viewBox="0 0 1024 1024" version="1.1" xmlns="http://www.w3.org/2000/svg" p-id="1336" xmlns:xlink="http://www.w3.org/1999/xlink" width="200" height="200"><defs><style type="text/css"></style></defs><path d="M911.715681 422.962128c-23.645536-24.137747-53.482075-40.252773-85.995583-46.814212-5.248537-58.427714-30.547737-112.667036-72.556503-154.649196-47.436382-47.406706-110.49865-73.514317-177.570231-73.514317-92.866061 0-176.88257 51.066049-220.36285 130.573871-17.162892-9.298783-36.559661-14.307867-56.676837-14.307867-64.686255 0-117.484761 51.871391-118.979812 116.207675-28.116361 9.203616-53.499471 25.844621-73.331145 48.406476-26.716478 30.394241-41.430598 69.440535-41.430598 109.945041 0 91.864244 74.79959 166.602436 166.739559 166.602436l561.558719 0c43.845601 0 85.34783-17.242709 116.862591-48.550763 31.736818-31.530111 49.214888-73.320912 49.214888-117.678166C959.187879 495.483838 942.328909 454.209806 911.715681 422.962128zM866.700441 613.301174c-19.934005 19.804045-46.069245 30.710442-73.590042 30.710442L231.55168 644.011616c-58.08593 0-105.341187-47.193859-105.341187-105.204064 0-52.315506 38.998199-97.112782 90.712001-104.202247 8.607028-1.179872 16.310477-5.951549 21.201881-13.131065s6.511297-16.095583 4.458545-24.536836c-1.090844-4.486174-1.64343-9.085936-1.64343-13.672394 0-31.770588 25.845645-57.617256 57.613162-57.617256 17.407462 0 33.703613 7.750521 44.710294 21.263279 7.040347 8.643867 18.21178 12.791327 29.191856 10.834766 10.975982-1.957585 20.028149-9.712199 23.647583-20.25737 26.295899-76.625168 98.42773-128.10668 179.489954-128.10668 104.628966 0 189.751668 85.075631 189.751668 189.648314 0 0.933255 0.020466 1.843998 0.044002 2.750647 0.010233 0.385786 0.028653 0.769526 0.022513 1.158383-0.350994 16.877389 12.990872 30.871101 29.866215 31.325449 27.526937 0.740874 53.302997 11.985986 72.581062 31.66314 19.301602 19.702738 29.931706 45.717228 29.931706 73.251328C897.789507 567.061037 886.749056 593.383542 866.700441 613.301174z" p-id="1337" fill="#1296db"></path><path d="M634.583896 746.20409l-77.405951 77.404927c-11.989055 11.988032-11.989055 31.425733 0 43.414789 5.994528 5.994528 13.849426 8.991792 21.707394 8.991792 7.855922 0 15.712867-2.998287 21.707394-8.991792l77.405951-77.404927c11.989055-11.988032 11.989055-31.425733 0-43.414789C666.009629 734.216058 646.572952 734.214011 634.583896 746.20409z" p-id="1338" fill="#1296db"></path><path d="M543.571043 731.995483c-11.988032-11.988032-31.426757-11.990079-43.414789 0l-91.613534 91.612511c-11.988032 11.989055-11.989055 31.425733 0 43.414789 5.995551 5.994528 13.850449 8.991792 21.707394 8.991792 7.855922 0 15.71389-2.998287 21.707394-8.991792l91.612511-91.612511C555.560098 763.42224 555.560098 743.984538 543.571043 731.995483z" p-id="1339" fill="#1296db"></path><path d="M394.936841 746.20409c-11.989055-11.988032-31.426757-11.990079-43.414789 0l-77.404927 77.404927c-11.989055 11.988032-11.989055 31.425733 0 43.414789 5.995551 5.994528 13.850449 8.991792 21.707394 8.991792 7.855922 0 15.71389-2.998287 21.707394-8.991792l77.404927-77.404927C406.925896 777.630846 406.925896 758.193145 394.936841 746.20409z" p-id="1340" fill="#1296db"></path></svg>